<svg width="420" height="420" viewBox="0 0 420 420" fill="none" xmlns="http://www.w3.org/2000/svg">
<path d="M6.25098 175.896L8.28297 176.26L10.0468 166.423L14.8093 172.708C15.2591 173.298 15.7137 173.861 16.1732 174.397C16.6401 174.944 17.121 175.437 17.6161 175.878C18.1129 176.31 18.6261 176.675 19.1559 176.974C19.6947 177.274 20.2557 177.476 20.8389 177.581C21.6194 177.721 22.3665 177.711 23.0803 177.552C23.7924 177.402 24.4366 177.115 25.0127 176.69C25.5889 176.266 26.0783 175.705 26.4809 175.009C26.8909 174.323 27.1788 173.518 27.3445 172.594C27.5246 171.589 27.524 170.663 27.3426 169.816C27.1595 168.977 26.8426 168.24 26.3919 167.604C25.9427 166.958 25.3761 166.426 24.6919 166.007C24.0166 165.59 23.2663 165.307 22.441 165.159L21.9922 167.662C22.6023 167.771 23.1403 167.947 23.6064 168.188C24.0709 168.438 24.4491 168.755 24.7411 169.141C25.0257 169.516 25.2196 169.958 25.3228 170.468C25.4243 170.986 25.4164 171.572 25.299 172.227C25.2024 172.766 25.0222 173.229 24.7582 173.617C24.5015 174.015 24.1889 174.339 23.8202 174.587C23.4531 174.827 23.0406 174.985 22.5826 175.06C22.132 175.146 21.6644 175.145 21.18 175.059C20.7852 174.988 20.4083 174.869 20.0492 174.703C19.699 174.538 19.3385 174.302 18.9677 173.995C18.5878 173.686 18.1858 173.295 17.7615 172.821C17.3372 172.346 16.8581 171.765 16.3241 171.077L10.3426 163.379L8.55278 163.058L6.25098 175.896Z" fill="#FF5100"/>
<path d="M11.9061 194.785L16.5482 195.217C17.8096 195.334 18.9394 195.293 19.9375 195.092C20.9446 194.893 21.8093 194.552 22.5315 194.07C23.2546 193.579 23.8256 192.95 24.2447 192.184C24.6721 191.427 24.933 190.54 25.0274 189.524C25.1211 188.517 25.028 187.597 24.7483 186.766C24.4769 185.944 24.0306 185.23 23.4097 184.623C22.7895 184.007 22.0029 183.508 21.0497 183.126C20.1057 182.746 19.0029 182.497 17.7414 182.38L13.0993 181.948C11.8378 181.831 10.7035 181.872 9.69628 182.071C8.69828 182.271 7.84217 182.617 7.12827 183.109C6.39617 183.6 5.82047 184.228 5.40137 184.995C4.99137 185.762 4.73957 186.65 4.64597 187.657C4.55147 188.673 4.63997 189.592 4.91147 190.414C5.18287 191.236 5.62917 191.95 6.25007 192.557C6.86197 193.163 7.63997 193.656 8.58407 194.037C9.53717 194.419 10.6446 194.668 11.9061 194.785ZM13.3676 184.527C13.6036 184.549 13.835 184.57 14.0619 184.591C14.2888 184.613 14.5157 184.634 14.7425 184.655L18.0642 184.963C18.9899 185.05 19.7937 185.216 20.4756 185.462C21.1658 185.719 21.7155 186.058 22.1248 186.481C22.4492 186.831 22.6811 187.242 22.8204 187.712C22.968 188.193 23.0139 188.733 22.9582 189.332C22.9034 189.922 22.7691 190.431 22.5553 190.86C22.3407 191.297 22.0466 191.654 21.6731 191.931C21.3078 192.217 20.8626 192.428 20.3375 192.562C19.8206 192.706 19.2321 192.784 18.5719 192.796L13.3676 184.527ZM11.6105 192.204C10.6394 192.114 9.80468 191.935 9.10628 191.669C8.40698 191.412 7.85448 191.054 7.44858 190.595C7.15048 190.256 6.93598 189.856 6.80488 189.396C6.67378 188.935 6.63478 188.419 6.68788 187.847C6.73848 187.302 6.86117 186.819 7.05597 186.398C7.25987 185.978 7.53037 185.627 7.86767 185.348C8.22557 185.042 8.66377 184.808 9.18237 184.646C9.70997 184.484 10.3089 184.394 10.979 184.374L16.1573 192.627C15.9032 192.603 15.581 192.573 15.1908 192.537C14.8096 192.501 14.5509 192.477 14.4148 192.465L11.6105 192.204Z" fill="#FF5100"/>
<path d="M4 212.213L6.0644 212.222L6.1106 202.228L11.8827 207.601C12.4272 208.105 12.9719 208.581 13.5167 209.03C14.0706 209.488 14.6293 209.892 15.1928 210.241C15.7563 210.581 16.3248 210.852 16.898 211.056C17.4804 211.259 18.0679 211.362 18.6603 211.365C19.4533 211.368 20.1876 211.23 20.8634 210.951C21.5391 210.681 22.1243 210.287 22.6189 209.77C23.1135 209.252 23.4992 208.616 23.7761 207.861C24.0621 207.115 24.2073 206.272 24.2116 205.333C24.2164 204.313 24.0565 203.4 23.7321 202.597C23.4076 201.802 22.9687 201.13 22.4152 200.581C21.8618 200.022 21.2121 199.596 20.466 199.3C19.7291 199.005 18.9414 198.856 18.1028 198.852L18.0911 201.395C18.7109 201.398 19.2711 201.478 19.7716 201.635C20.2722 201.802 20.6994 202.05 21.0534 202.379C21.3983 202.7 21.6653 203.102 21.8545 203.586C22.0436 204.079 22.1366 204.658 22.1335 205.324C22.131 205.871 22.0331 206.358 21.8397 206.785C21.6554 207.222 21.403 207.595 21.0826 207.903C20.7622 208.202 20.3829 208.428 19.9447 208.581C19.5155 208.743 19.0549 208.823 18.5627 208.821C18.1616 208.819 17.7699 208.767 17.3876 208.665C17.0144 208.563 16.6187 208.393 16.2005 208.154C15.7732 207.915 15.3098 207.598 14.8103 207.204C14.3108 206.81 13.7389 206.32 13.0944 205.733L5.8785 199.178L4.0602 199.17L4 212.213Z" fill="#FF5100"/>
<path d="M5.1745 229.764L7.2325 229.601L6.4445 219.638L12.6448 224.51C13.2295 224.967 13.8121 225.396 14.3924 225.798C14.9826 226.209 15.5731 226.564 16.1637 226.865C16.7537 227.157 17.3427 227.38 17.931 227.534C18.5283 227.688 19.1223 227.742 19.7129 227.695C20.5034 227.633 21.2237 227.434 21.8738 227.099C22.5246 226.773 23.0749 226.332 23.5245 225.775C23.9742 225.218 24.3055 224.552 24.5185 223.777C24.7412 223.009 24.8156 222.158 24.7415 221.222C24.6611 220.204 24.4256 219.308 24.0353 218.535C23.6456 217.77 23.1521 217.137 22.5548 216.636C21.9567 216.125 21.2736 215.754 20.5055 215.522C19.7465 215.29 18.9491 215.207 18.1131 215.273L18.3137 217.808C18.9315 217.759 19.4964 217.792 20.0084 217.907C20.5211 218.031 20.9675 218.242 21.3478 218.542C21.7182 218.832 22.0179 219.211 22.2468 219.677C22.4764 220.153 22.6174 220.722 22.6699 221.386C22.713 221.931 22.6561 222.424 22.499 222.867C22.3518 223.317 22.1314 223.709 21.8378 224.043C21.5435 224.368 21.1844 224.625 20.7605 224.814C20.3464 225.012 19.894 225.13 19.4033 225.169C19.0035 225.2 18.6089 225.181 18.2194 225.111C17.8389 225.041 17.4304 224.904 16.9937 224.701C16.548 224.498 16.0598 224.222 15.5291 223.87C14.9985 223.519 14.3876 223.078 13.6965 222.548L5.9587 216.618L4.146 216.762L5.1745 229.764Z" fill="#FF5100"/>
<path d="M19.2931 262.029L21.3061 261.513L18.7073 251.382L16.6943 251.898L19.2931 262.029Z" fill="#FF5100"/>
<path d="M28.7846 294.705C28.2853 294.928 27.8042 295.014 27.3414 294.961C26.8869 294.904 26.4669 294.758 26.0814 294.52C25.6877 294.287 25.334 293.976 25.0204 293.587C24.7189 293.203 24.4677 292.786 24.267 292.336C24.0141 291.77 23.8548 291.213 23.7889 290.663C23.7351 290.118 23.7803 289.594 23.9246 289.09C24.0606 288.59 24.2929 288.127 24.6215 287.7C24.9585 287.27 25.3931 286.892 25.9255 286.564L24.8714 284.205C24.1004 284.579 23.4651 285.068 22.9656 285.67C22.4782 286.277 22.12 286.961 21.891 287.723C21.6169 288.584 21.5202 289.495 21.6007 290.458C21.685 291.428 21.9205 292.346 22.3072 293.212C22.6307 293.936 23.054 294.615 23.5772 295.25C24.1088 295.881 24.7067 296.393 25.371 296.785C26.027 297.18 26.7387 297.421 27.506 297.508C28.2771 297.603 29.0704 297.468 29.886 297.103C30.6932 296.743 31.3284 296.254 31.7918 295.638C32.2589 295.03 32.5819 294.356 32.7609 293.617C32.9695 292.855 33.0688 292.072 33.0589 291.268C33.0573 290.46 33.01 289.673 32.9168 288.906C32.8595 288.442 32.8099 287.94 32.7681 287.4C32.73 286.868 32.7485 286.35 32.8233 285.848C32.8945 285.337 33.0514 284.872 33.294 284.454C33.5449 284.033 33.9306 283.701 34.4511 283.458C34.9338 283.243 35.401 283.149 35.8526 283.177C36.308 283.213 36.7349 283.341 37.1333 283.563C37.5279 283.776 37.8806 284.062 38.1914 284.423C38.5058 284.791 38.7616 285.196 38.9586 285.637C39.204 286.186 39.336 286.716 39.3546 287.227C39.3853 287.743 39.3173 288.227 39.1507 288.681C38.9841 289.135 38.7271 289.554 38.3799 289.939C38.041 290.32 37.6243 290.661 37.1298 290.962L38.1895 293.333C39.0142 292.945 39.6874 292.429 40.209 291.787C40.7306 291.145 41.1022 290.435 41.3237 289.657C41.5452 288.879 41.6213 288.066 41.5521 287.219C41.4912 286.367 41.2841 285.547 40.9309 284.756C40.6111 284.04 40.1809 283.379 39.6401 282.772C39.1077 282.161 38.5048 281.672 37.8312 281.304C37.1577 280.936 36.435 280.715 35.663 280.641C34.8947 280.575 34.1195 280.716 33.3373 281.066C32.555 281.415 31.9489 281.891 31.5188 282.492C31.1008 283.098 30.8022 283.771 30.6232 284.51C30.4488 285.237 30.3587 285.996 30.3529 286.787C30.3591 287.583 30.4013 288.348 30.4795 289.081C30.5351 289.586 30.5815 290.114 30.6187 290.666C30.6596 291.227 30.6403 291.765 30.5608 292.279C30.473 292.798 30.2935 293.267 30.0222 293.688C29.7547 294.117 29.3421 294.456 28.7846 294.705Z" fill="#FF5100"/>
<path d="M46.4498 299.803L45.2218 297.576L42.0851 299.306L40.21 295.906L38.4981 296.85L40.3731 300.25L33.3336 304.132C32.5355 304.573 31.9102 305.053 31.458 305.573C31.0181 306.096 30.7239 306.639 30.5752 307.199C30.4185 307.765 30.3928 308.341 30.4981 308.928C30.6158 309.519 30.8331 310.102 31.15 310.676C31.3393 311.02 31.5445 311.354 31.7657 311.68C31.9913 312.013 32.2217 312.318 32.4572 312.594C32.6848 312.874 32.9112 313.124 33.1362 313.344C33.3693 313.559 33.5922 313.727 33.8052 313.849L35.2019 312.673C35.0952 312.555 34.9585 312.401 34.7917 312.212C34.6374 312.027 34.4741 311.825 34.3022 311.608C34.1258 311.382 33.9514 311.151 33.7786 310.913C33.6138 310.671 33.4653 310.43 33.3332 310.19C33.1528 309.863 33.0211 309.53 32.9381 309.191C32.8594 308.859 32.8582 308.527 32.9345 308.193C33.0028 307.864 33.1654 307.546 33.4222 307.237C33.679 306.929 34.0587 306.637 34.5616 306.359L41.6012 302.477L44.3214 307.41L46.0334 306.465L43.3132 301.533L46.4498 299.803Z" fill="#FF5100"/>
<path d="M39.8706 324.729C40.6732 325.925 41.5847 326.767 42.605 327.257C43.638 327.749 44.6019 327.991 45.4968 327.983L45.6346 326.03C44.8761 325.979 44.1499 325.764 43.456 325.385C42.7622 325.005 42.1638 324.441 41.6608 323.692C41.2798 323.124 41.0378 322.535 40.9347 321.923C40.8316 321.312 40.8537 320.715 41.001 320.133C41.1307 319.574 41.3591 319.048 41.6861 318.554C42.0183 318.067 42.4655 317.597 43.0277 317.143L43.1072 317.089L48.9975 325.864L49.9397 325.231C50.7948 324.657 51.5158 324.014 52.1025 323.302C52.6943 322.597 53.1154 321.843 53.3656 321.038C53.6082 320.238 53.6574 319.404 53.513 318.535C53.3813 317.668 53.0183 316.792 52.4239 315.907C51.9515 315.203 51.3454 314.611 50.6057 314.13C49.8711 313.657 49.0599 313.34 48.1721 313.179C47.2716 313.015 46.3212 313.038 45.3208 313.249C44.328 313.454 43.3359 313.889 42.3445 314.555L41.8678 314.875C41.0126 315.449 40.3183 316.124 39.7849 316.899C39.2514 317.674 38.8926 318.497 38.7083 319.367C38.524 320.237 38.5256 321.131 38.713 322.048C38.9056 322.973 39.2914 323.866 39.8706 324.729ZM50.6985 317.065C51.0592 317.602 51.2707 318.13 51.3331 318.648C51.4005 319.174 51.3616 319.672 51.2165 320.142C51.0714 320.613 50.8276 321.068 50.4852 321.506C50.1504 321.939 49.7938 322.283 49.4154 322.537L49.3132 322.606L44.8783 315.999C45.5018 315.701 46.0978 315.51 46.6663 315.425C47.2474 315.342 47.791 315.35 48.2969 315.45C48.7952 315.554 49.2471 315.745 49.6524 316.022C50.0653 316.293 50.4141 316.641 50.6985 317.065Z" fill="#FF5100"/>
<path d="M48.9619 336.77L50.5507 338.756L60.5747 330.735L64.1367 335.187L65.6627 333.965L62.1007 329.514L62.9127 328.864C63.3967 328.477 63.8677 328.199 64.3277 328.029C64.7937 327.867 65.2367 327.816 65.6577 327.876C66.0607 327.927 66.4527 328.081 66.8327 328.337C67.2257 328.594 67.6017 328.947 67.9597 329.396C68.3127 329.837 68.6047 330.281 68.8337 330.728C69.0757 331.176 69.2637 331.586 69.3977 331.958L71.2187 330.886C71.1207 330.661 71.0177 330.445 70.9107 330.239C70.8117 330.027 70.7077 329.817 70.6017 329.611C70.4347 329.301 70.2547 328.995 70.0607 328.695C69.8747 328.389 69.6677 328.094 69.4397 327.809C68.8927 327.126 68.3017 326.584 67.6647 326.182C67.0287 325.781 66.3657 325.535 65.6747 325.446C64.9787 325.349 64.2617 325.415 63.5227 325.645C62.7967 325.875 62.0637 326.287 61.3237 326.879L60.5127 327.528L57.9667 324.347L56.4407 325.568L58.9857 328.75L48.9619 336.77Z" fill="#FF5100"/>
<path d="M60.5669 350.348L62.3169 352.193L71.6319 343.36L75.5549 347.497L76.9739 346.152L73.0509 342.015L73.8049 341.3C74.2549 340.873 74.7019 340.557 75.1459 340.349C75.5959 340.148 76.0329 340.06 76.4579 340.084C76.8639 340.101 77.2669 340.222 77.6669 340.445C78.0799 340.669 78.4839 340.989 78.8799 341.406C79.2679 341.816 79.5959 342.234 79.8619 342.66C80.1399 343.087 80.3619 343.479 80.5269 343.838L82.2519 342.617C82.1349 342.401 82.0149 342.195 81.8909 341.998C81.7739 341.796 81.6529 341.596 81.5299 341.399C81.3379 341.104 81.1319 340.815 80.9139 340.532C80.7029 340.242 80.4719 339.965 80.2209 339.701C79.6189 339.066 78.9839 338.575 78.3159 338.228C77.6479 337.882 76.9669 337.693 76.2709 337.662C75.5699 337.624 74.8599 337.75 74.1429 338.04C73.4389 338.331 72.7429 338.802 72.0549 339.455L71.3009 340.17L68.4979 337.213L67.0789 338.558L69.8829 341.515L60.5669 350.348Z" fill="#FF5100"/>
<path d="M77.7377 366.867L79.7077 368.622L79.8538 368.458C80.0038 368.043 80.2268 367.601 80.5228 367.131C80.8238 366.656 81.1388 366.234 81.4658 365.866L86.0387 360.73C86.5907 360.111 86.9598 359.47 87.1478 358.807C87.3348 358.144 87.3738 357.483 87.2648 356.824C87.1428 356.167 86.8797 355.523 86.4747 354.895C86.0767 354.259 85.5647 353.663 84.9377 353.105C84.2507 352.493 83.5498 352.04 82.8358 351.746C82.1278 351.457 81.4508 351.3 80.8038 351.273C80.1438 351.246 79.5387 351.336 78.9887 351.542C78.4457 351.755 77.9927 352.059 77.6277 352.454L79.5277 354.145C79.7337 353.914 79.9847 353.741 80.2817 353.627C80.5917 353.512 80.9178 353.467 81.2618 353.493C81.6048 353.518 81.9658 353.613 82.3438 353.779C82.7278 353.95 83.1068 354.202 83.4818 354.536C83.8828 354.893 84.1988 355.266 84.4278 355.653C84.6638 356.046 84.8117 356.434 84.8727 356.818C84.9277 357.208 84.8977 357.591 84.7847 357.966C84.6707 358.34 84.4648 358.694 84.1678 359.028L83.3958 359.896L81.3327 358.059C80.5637 357.374 79.7988 356.828 79.0398 356.42C78.2868 356.018 77.5557 355.77 76.8467 355.676C76.1307 355.588 75.4477 355.663 74.7967 355.901C74.1527 356.145 73.5608 356.57 73.0208 357.176C72.6088 357.639 72.3128 358.15 72.1318 358.709C71.9648 359.267 71.9197 359.838 71.9987 360.421C72.0647 361.005 72.2568 361.591 72.5758 362.179C72.9008 362.774 73.3558 363.331 73.9408 363.853C74.3018 364.174 74.6758 364.44 75.0618 364.65C75.4488 364.86 75.8428 365.027 76.2438 365.152C76.6378 365.272 77.0268 365.349 77.4098 365.385C77.7998 365.427 78.1748 365.437 78.5348 365.417C78.3488 365.666 78.1797 365.918 78.0267 366.172C77.8857 366.426 77.7897 366.657 77.7377 366.867ZM75.6807 362.454C75.3127 362.127 75.0317 361.791 74.8377 361.448C74.6437 361.104 74.5298 360.765 74.4978 360.431C74.4598 360.104 74.4958 359.782 74.6068 359.466C74.7238 359.156 74.9038 358.865 75.1468 358.592C75.4008 358.306 75.6798 358.097 75.9818 357.963C76.2908 357.835 76.6198 357.781 76.9698 357.799C77.4618 357.822 77.9978 357.994 78.5778 358.316C79.1708 358.637 79.7947 359.088 80.4477 359.67L82.2047 361.233L80.2127 363.47C79.9107 363.59 79.5727 363.668 79.1997 363.703C78.8337 363.73 78.4518 363.707 78.0538 363.634C77.6488 363.554 77.2437 363.419 76.8387 363.23C76.4337 363.04 76.0477 362.781 75.6807 362.454Z" fill="#FF5100"/>
<path d="M84.041 372.101L86.066 373.616L92.421 365.121C92.751 364.969 93.086 364.856 93.427 364.781C93.775 364.711 94.119 364.678 94.458 364.681C94.864 364.7 95.266 364.779 95.664 364.917C96.067 365.048 96.455 365.253 96.827 365.531C97.257 365.853 97.599 366.188 97.851 366.536C98.11 366.889 98.272 367.266 98.336 367.667C98.393 368.063 98.344 368.487 98.187 368.939C98.031 369.391 97.756 369.88 97.363 370.406L91.77 377.883L93.795 379.398L99.421 371.877C100.011 371.089 100.42 370.336 100.649 369.62C100.891 368.901 100.972 368.222 100.893 367.582C100.813 366.942 100.584 366.344 100.204 365.786C99.832 365.235 99.335 364.727 98.715 364.263C98.249 363.926 97.76 363.668 97.245 363.488C96.744 363.306 96.231 363.201 95.705 363.173C95.357 363.151 94.998 363.167 94.628 363.22C94.271 363.272 93.912 363.356 93.551 363.473L94.719 361.615L92.902 360.256L84.041 372.101Z" fill="#FF5100"/>
<path d="M120.007 385.971L123.506 387.746C124.307 388.142 125.121 388.401 125.948 388.524C126.783 388.651 127.582 388.627 128.345 388.452C129.108 388.277 129.809 387.942 130.448 387.448C131.099 386.951 131.64 386.275 132.073 385.421C132.506 384.568 132.731 383.731 132.748 382.912C132.773 382.097 132.63 381.33 132.32 380.611C132.011 379.892 131.558 379.233 130.962 378.634C130.374 378.04 129.686 377.533 128.898 377.113L123.142 374.194L114.14 391.949L116.396 393.093L120.007 385.971ZM120.946 384.118L124.458 377.192L127.958 378.966C128.474 379.238 128.91 379.567 129.267 379.952C129.632 380.341 129.9 380.769 130.073 381.234C130.237 381.696 130.3 382.187 130.26 382.709C130.229 383.234 130.077 383.766 129.805 384.302C129.533 384.839 129.196 385.271 128.795 385.599C128.406 385.923 127.975 386.149 127.501 386.276C127.028 386.404 126.53 386.438 126.009 386.378C125.491 386.31 124.97 386.148 124.446 385.892L120.946 384.118Z" fill="#FF5100"/>
<path d="M135.951 402.401C137.285 402.942 138.512 403.13 139.632 402.965C140.763 402.794 141.698 402.455 142.435 401.947L141.455 400.252C140.798 400.635 140.076 400.863 139.289 400.937C138.501 401.011 137.69 400.878 136.854 400.539C136.22 400.282 135.689 399.929 135.262 399.48C134.834 399.032 134.518 398.525 134.314 397.96C134.109 397.424 134.003 396.86 133.998 396.268C134.001 395.679 134.108 395.039 134.319 394.347L134.355 394.259L144.149 398.231L144.575 397.18C144.962 396.225 145.2 395.289 145.287 394.37C145.383 393.455 145.309 392.594 145.066 391.787C144.819 390.989 144.393 390.27 143.787 389.63C143.192 388.986 142.401 388.463 141.413 388.063C140.627 387.744 139.794 387.593 138.912 387.609C138.038 387.628 137.188 387.82 136.362 388.183C135.524 388.551 134.75 389.103 134.039 389.837C133.331 390.563 132.753 391.479 132.304 392.586L132.089 393.118C131.701 394.072 131.504 395.02 131.496 395.961C131.488 396.902 131.651 397.785 131.986 398.609C132.32 399.433 132.822 400.173 133.491 400.828C134.168 401.486 134.988 402.01 135.951 402.401ZM140.632 389.988C141.231 390.232 141.702 390.55 142.044 390.945C142.394 391.342 142.64 391.777 142.784 392.248C142.927 392.719 142.98 393.233 142.941 393.788C142.907 394.334 142.803 394.818 142.632 395.241L142.586 395.355L135.212 392.364C135.562 391.768 135.949 391.276 136.372 390.887C136.807 390.493 137.262 390.196 137.737 389.995C138.209 389.802 138.69 389.707 139.181 389.71C139.675 389.704 140.159 389.797 140.632 389.988Z" fill="#FF5100"/>
<path d="M160.405 394.634C159.378 394.315 158.39 394.256 157.44 394.458C156.501 394.653 155.624 395.049 154.809 395.646L154.906 395.289L155.389 393.363L153.09 392.65L148.707 406.779L151.135 407.533L153.947 398.47C154.239 398.084 154.556 397.753 154.899 397.478C155.254 397.196 155.63 396.984 156.028 396.84C156.471 396.672 156.954 396.593 157.476 396.602C158 396.603 158.559 396.695 159.151 396.878C159.612 397.022 160.044 397.184 160.445 397.366C160.858 397.542 161.284 397.755 161.721 398.005L162.781 395.743C162.57 395.563 162.23 395.367 161.761 395.155C161.301 394.945 160.849 394.772 160.405 394.634Z" fill="#FF5100"/>
<path d="M170.991 413.024C172.399 413.327 173.64 413.301 174.714 412.945C175.799 412.582 176.661 412.087 177.3 411.46L176.043 409.958C175.462 410.449 174.79 410.798 174.027 411.007C173.264 411.215 172.442 411.225 171.559 411.035C170.891 410.891 170.308 410.634 169.809 410.266C169.31 409.898 168.912 409.453 168.614 408.932C168.319 408.439 168.118 407.902 168.01 407.319C167.912 406.739 167.907 406.09 167.996 405.372L168.016 405.279L178.348 407.504L178.587 406.395C178.803 405.388 178.876 404.424 178.803 403.504C178.74 402.586 178.519 401.751 178.141 400.998C177.76 400.254 177.216 399.619 176.509 399.094C175.812 398.562 174.943 398.183 173.9 397.959C173.072 397.78 172.224 397.775 171.358 397.943C170.501 398.113 169.697 398.448 168.946 398.948C168.184 399.455 167.516 400.132 166.943 400.978C166.371 401.815 165.959 402.817 165.708 403.984L165.587 404.546C165.37 405.552 165.339 406.52 165.493 407.448C165.647 408.377 165.96 409.218 166.432 409.972C166.903 410.726 167.525 411.368 168.297 411.898C169.077 412.43 169.975 412.805 170.991 413.024ZM173.463 399.99C174.095 400.127 174.614 400.36 175.018 400.689C175.432 401.021 175.75 401.406 175.972 401.846C176.194 402.285 176.335 402.781 176.393 403.335C176.452 403.879 176.434 404.374 176.338 404.819L176.313 404.94L168.534 403.264C168.776 402.617 169.072 402.066 169.422 401.61C169.783 401.146 170.18 400.775 170.613 400.495C171.044 400.225 171.502 400.048 171.985 399.966C172.471 399.875 172.964 399.883 173.463 399.99Z" fill="#FF5100"/>
<path d="M193.732 401.177C192.665 401.04 191.681 401.153 190.78 401.516C189.89 401.87 189.094 402.412 188.395 403.14L188.428 402.772L188.571 400.792L186.184 400.486L184.306 415.16L186.829 415.482L188.033 406.071C188.254 405.64 188.509 405.259 188.8 404.929C189.1 404.59 189.434 404.316 189.801 404.106C190.209 403.864 190.671 403.702 191.186 403.621C191.703 403.531 192.269 403.526 192.884 403.604C193.363 403.666 193.816 403.751 194.243 403.861C194.68 403.963 195.136 404.099 195.61 404.27L196.264 401.859C196.024 401.718 195.656 401.584 195.157 401.456C194.668 401.329 194.193 401.236 193.732 401.177Z" fill="#FF5100"/>
<path d="M209.688 417.32L212.324 417.433L212.334 417.215C212.187 416.798 212.08 416.314 212.013 415.764C211.945 415.205 211.922 414.679 211.943 414.187L212.238 407.317C212.273 406.488 212.154 405.758 211.88 405.126C211.606 404.494 211.219 403.957 210.718 403.516C210.207 403.083 209.596 402.752 208.885 402.52C208.175 402.28 207.401 402.142 206.563 402.106C205.643 402.067 204.814 402.159 204.074 402.383C203.344 402.607 202.72 402.913 202.201 403.301C201.673 403.698 201.262 404.151 200.966 404.658C200.68 405.166 200.521 405.688 200.489 406.225L203.029 406.334C203.043 406.024 203.128 405.731 203.286 405.455C203.453 405.171 203.678 404.929 203.96 404.732C204.242 404.534 204.582 404.38 204.979 404.269C205.385 404.159 205.838 404.114 206.339 404.136C206.877 404.159 207.356 404.248 207.778 404.403C208.21 404.558 208.57 404.765 208.86 405.024C209.15 405.291 209.369 405.606 209.518 405.969C209.666 406.331 209.731 406.735 209.712 407.181L209.662 408.342L206.903 408.224C205.874 408.18 204.936 408.24 204.09 408.405C203.253 408.569 202.53 408.839 201.921 409.215C201.311 409.599 200.829 410.089 200.475 410.685C200.131 411.282 199.941 411.985 199.906 412.796C199.879 413.415 199.973 413.998 200.187 414.546C200.41 415.084 200.737 415.555 201.166 415.956C201.587 416.366 202.106 416.699 202.725 416.954C203.352 417.208 204.058 417.353 204.841 417.386C205.324 417.407 205.781 417.376 206.213 417.295C206.646 417.213 207.057 417.094 207.447 416.937C207.827 416.78 208.177 416.594 208.497 416.38C208.825 416.166 209.122 415.937 209.388 415.693C209.402 416.004 209.43 416.306 209.473 416.6C209.524 416.885 209.596 417.125 209.688 417.32ZM205.304 415.203C204.812 415.182 204.382 415.1 204.015 414.956C203.647 414.813 203.345 414.622 203.109 414.384C202.872 414.155 202.697 413.882 202.582 413.567C202.477 413.253 202.433 412.913 202.448 412.549C202.465 412.167 202.548 411.828 202.697 411.533C202.856 411.239 203.076 410.988 203.359 410.782C203.754 410.488 204.279 410.283 204.931 410.165C205.594 410.038 206.362 409.993 207.236 410.031L209.586 410.132L209.457 413.123C209.299 413.408 209.087 413.682 208.82 413.944C208.554 414.197 208.243 414.421 207.888 414.616C207.524 414.81 207.125 414.962 206.692 415.071C206.258 415.18 205.796 415.224 205.304 415.203Z" fill="#FF5100"/>
<path d="M17.9648 159.912C30.1483 113.066 58.9888 72.2655 99.0878 45.1511C139.186 18.0368 187.792 6.46726 235.806 12.6086C283.821 18.75 327.95 42.1813 359.933 78.5154C391.915 114.85 409.558 161.595 409.558 210.001" stroke="#FF5100" stroke-width="2"/>
<path d="M252.912 15.5599C300.208 25.8622 342.128 53.0499 370.823 92.033C399.517 131.016 413.02 179.121 408.801 227.342C404.583 275.564 382.934 320.594 347.906 354.003C312.879 387.411 266.875 406.908 218.509 408.842" stroke="#FF5100" stroke-width="2"/>
<circle cx="210" cy="210" r="99" stroke="#FF5100" stroke-width="2"/>
</svg>
